<?xml version="1.0" encoding="UTF-8" standalone="no"?>
<!DOCTYPE svg PUBLIC "-//W3C//DTD SVG 1.1//EN"
 "http://www.w3.org/Graphics/SVG/1.1/DTD/svg11.dtd">
<!-- Generated by graphviz version 2.26.3 (20100126.1600)
 -->
<!-- Title: G Pages: 1 -->
<svg width="152pt" height="206pt"
 viewBox="0.00 0.00 152.00 206.00" xmlns="http://www.w3.org/2000/svg" xmlns:xlink="http://www.w3.org/1999/xlink">
<g id="graph1" class="graph" transform="scale(1 1) rotate(0) translate(4 202)">
<title>G</title>
<polygon fill="white" stroke="white" points="-4,5 -4,-202 149,-202 149,5 -4,5"/>
<g id="graph2" class="cluster"><title>cluster_core</title>
<polyline fill="none" stroke="gray" points="20,-8 124,-8 "/>
<path fill="none" stroke="gray" d="M124,-8C130,-8 136,-14 136,-20"/>
<polyline fill="none" stroke="gray" points="136,-20 136,-178 "/>
<path fill="none" stroke="gray" d="M136,-178C136,-184 130,-190 124,-190"/>
<polyline fill="none" stroke="gray" points="124,-190 20,-190 "/>
<path fill="none" stroke="gray" d="M20,-190C14,-190 8,-184 8,-178"/>
<polyline fill="none" stroke="gray" points="8,-178 8,-20 "/>
<path fill="none" stroke="gray" d="M8,-20C8,-14 14,-8 20,-8"/>
<text text-anchor="middle" x="72" y="-176.1" font-family="Times Roman,serif" font-size="11.00" fill="gray">core</text>
</g>
<!-- \\core\\Users -->
<g id="node2" class="node"><title>\\core\\Users</title>
<a xlink:href="Users.html" xlink:title="Users" target="_parent">
<polygon fill="none" stroke="black" points="99,-160 45,-160 45,-124 99,-124 99,-160"/>
<text text-anchor="middle" x="72" y="-139.1" font-family="Courier,monospace" font-size="11.00">Users</text>
</a>
</g>
<!-- \\core\\Authentication -->
<g id="node3" class="node"><title>\\core\\Authentication</title>
<a xlink:href="Authentication.html" xlink:title="Authentication" target="_parent">
<polygon fill="none" stroke="black" points="127,-106 17,-106 17,-70 127,-70 127,-106"/>
<text text-anchor="middle" x="72" y="-85.1" font-family="Courier,monospace" font-size="11.00">Authentication</text>
</a>
</g>
<!-- \\core\\Database -->
<g id="node4" class="node"><title>\\core\\Database</title>
<a xlink:href="Database.html" xlink:title="Database" target="_parent">
<polygon fill="none" stroke="black" points="107,-52 37,-52 37,-16 107,-16 107,-52"/>
<text text-anchor="middle" x="72" y="-31.1" font-family="Courier,monospace" font-size="11.00">Database</text>
</a>
</g>
</g>
</svg>
