<?xml version="1.0" encoding="UTF-8" standalone="no"?>
<!DOCTYPE svg PUBLIC "-//W3C//DTD SVG 1.1//EN"
 "http://www.w3.org/Graphics/SVG/1.1/DTD/svg11.dtd">
<!-- Generated by graphviz version 2.26.3 (20100126.1600)
 -->
<!-- Title: G Pages: 1 -->
<svg width="168pt" height="236pt"
 viewBox="0.00 0.00 168.00 236.00" xmlns="http://www.w3.org/2000/svg" xmlns:xlink="http://www.w3.org/1999/xlink">
<g id="graph1" class="graph" transform="scale(1 1) rotate(0) translate(4 232)">
<title>G</title>
<polygon fill="white" stroke="white" points="-4,5 -4,-232 165,-232 165,5 -4,5"/>
<g id="graph2" class="cluster"><title>cluster_core</title>
<polyline fill="none" stroke="gray" points="20,-8 140,-8 "/>
<path fill="none" stroke="gray" d="M140,-8C146,-8 152,-14 152,-20"/>
<polyline fill="none" stroke="gray" points="152,-20 152,-208 "/>
<path fill="none" stroke="gray" d="M152,-208C152,-214 146,-220 140,-220"/>
<polyline fill="none" stroke="gray" points="140,-220 20,-220 "/>
<path fill="none" stroke="gray" d="M20,-220C14,-220 8,-214 8,-208"/>
<polyline fill="none" stroke="gray" points="8,-208 8,-20 "/>
<path fill="none" stroke="gray" d="M8,-20C8,-14 14,-8 20,-8"/>
<text text-anchor="middle" x="80" y="-206.1" font-family="Times Roman,serif" font-size="11.00" fill="gray">core</text>
</g>
<g id="graph3" class="cluster"><title>cluster_core\users</title>
<polyline fill="none" stroke="gray" points="28,-62 132,-62 "/>
<path fill="none" stroke="gray" d="M132,-62C138,-62 144,-68 144,-74"/>
<polyline fill="none" stroke="gray" points="144,-74 144,-178 "/>
<path fill="none" stroke="gray" d="M144,-178C144,-184 138,-190 132,-190"/>
<polyline fill="none" stroke="gray" points="132,-190 28,-190 "/>
<path fill="none" stroke="gray" d="M28,-190C22,-190 16,-184 16,-178"/>
<polyline fill="none" stroke="gray" points="16,-178 16,-74 "/>
<path fill="none" stroke="gray" d="M16,-74C16,-68 22,-62 28,-62"/>
<text text-anchor="middle" x="80" y="-176.1" font-family="Times Roman,serif" font-size="11.00" fill="gray">users</text>
</g>
<!-- \\core\\users\\Users -->
<g id="node3" class="node"><title>\\core\\users\\Users</title>
<a xlink:href="users.Users.html" xlink:title="Users" target="_parent">
<polygon fill="none" stroke="black" points="107,-160 53,-160 53,-124 107,-124 107,-160"/>
<text text-anchor="middle" x="80" y="-139.1" font-family="Courier,monospace" font-size="11.00">Users</text>
</a>
</g>
<!-- \\core\\users\\Authentication -->
<g id="node4" class="node"><title>\\core\\users\\Authentication</title>
<a xlink:href="users.Authentication.html" xlink:title="Authentication" target="_parent">
<polygon fill="none" stroke="black" points="135,-106 25,-106 25,-70 135,-70 135,-106"/>
<text text-anchor="middle" x="80" y="-85.1" font-family="Courier,monospace" font-size="11.00">Authentication</text>
</a>
</g>
<!-- \\core\\Database -->
<g id="node5" class="node"><title>\\core\\Database</title>
<a xlink:href="Database.html" xlink:title="Database" target="_parent">
<polygon fill="none" stroke="black" points="115,-52 45,-52 45,-16 115,-16 115,-52"/>
<text text-anchor="middle" x="80" y="-31.1" font-family="Courier,monospace" font-size="11.00">Database</text>
</a>
</g>
</g>
</svg>
